<svg width="250" height="30" viewBox="0 0 284 30" fill="none" xmlns="http://www.w3.org/2000/svg">
<path d="M2.8 23C1.98933 23 1.36 22.776 0.912 22.328C0.485333 21.88 0.272 21.2613 0.272 20.472V2.904C0.272 2.072 0.485333 1.44267 0.912 1.016C1.33867 0.589333 1.95733 0.375999 2.768 0.375999C3.55733 0.375999 4.16533 0.589333 4.592 1.016C5.01867 1.44267 5.232 2.072 5.232 2.904V18.808H13.808C14.4907 18.808 15.0133 18.9893 15.376 19.352C15.76 19.7147 15.952 20.2267 15.952 20.888C15.952 21.5707 15.76 22.0933 15.376 22.456C15.0133 22.8187 14.4907 23 13.808 23H2.8ZM23.5118 23.352C22.3598 23.352 21.3251 23.128 20.4078 22.68C19.4904 22.232 18.7758 21.624 18.2638 20.856C17.7518 20.088 17.4958 19.224 17.4958 18.264C17.4958 17.112 17.7944 16.2053 18.3918 15.544C18.9891 14.8613 19.9598 14.3813 21.3038 14.104C22.6478 13.8053 24.4291 13.656 26.6478 13.656H28.3438V16.152H26.6798C25.5918 16.152 24.7064 16.216 24.0238 16.344C23.3624 16.4507 22.8824 16.6427 22.5838 16.92C22.3064 17.1973 22.1678 17.5813 22.1678 18.072C22.1678 18.6693 22.3704 19.16 22.7758 19.544C23.2024 19.928 23.8104 20.12 24.5998 20.12C25.2184 20.12 25.7624 19.9813 26.2318 19.704C26.7224 19.4053 27.1064 19.0107 27.3838 18.52C27.6611 18.008 27.7998 17.432 27.7998 16.792V13.112C27.7998 12.1733 27.5864 11.512 27.1598 11.128C26.7331 10.7227 26.0078 10.52 24.9838 10.52C24.4078 10.52 23.7784 10.5947 23.0958 10.744C22.4344 10.872 21.6984 11.096 20.8878 11.416C20.4184 11.6293 20.0024 11.6827 19.6398 11.576C19.2771 11.448 18.9998 11.2347 18.8078 10.936C18.6158 10.616 18.5198 10.2747 18.5198 9.912C18.5198 9.528 18.6264 9.16533 18.8398 8.824C19.0531 8.46133 19.4051 8.19467 19.8958 8.024C20.8984 7.61867 21.8371 7.34133 22.7118 7.192C23.6078 7.04267 24.4291 6.968 25.1758 6.968C26.8184 6.968 28.1624 7.21333 29.2078 7.704C30.2744 8.17333 31.0744 8.90933 31.6078 9.912C32.1411 10.8933 32.4078 12.1627 32.4078 13.72V20.824C32.4078 21.6133 32.2158 22.2213 31.8318 22.648C31.4478 23.0747 30.8931 23.288 30.1678 23.288C29.4424 23.288 28.8771 23.0747 28.4718 22.648C28.0878 22.2213 27.8958 21.6133 27.8958 20.824V19.64L28.1198 19.832C27.9918 20.5573 27.7144 21.1867 27.2878 21.72C26.8824 22.232 26.3598 22.6373 25.7198 22.936C25.0798 23.2133 24.3438 23.352 23.5118 23.352ZM42.32 23.288C41.68 23.288 41.136 23.1387 40.688 22.84C40.24 22.52 39.8773 22.0187 39.6 21.336L35.088 10.168C34.8533 9.57067 34.7787 9.048 34.864 8.6C34.9493 8.13067 35.1733 7.75733 35.536 7.48C35.92 7.18133 36.4427 7.032 37.104 7.032C37.6587 7.032 38.1173 7.17067 38.48 7.448C38.8427 7.704 39.152 8.20533 39.408 8.952L42.928 18.328H42.192L45.84 8.536C46.0107 8.024 46.256 7.65067 46.576 7.416C46.9173 7.16 47.3547 7.032 47.888 7.032C48.4213 7.032 48.848 7.16 49.168 7.416C49.5093 7.672 49.776 8.04533 49.968 8.536L53.552 18.328H52.944L56.432 8.824C56.688 8.14133 57.0187 7.672 57.424 7.416C57.8293 7.16 58.2667 7.032 58.736 7.032C59.3333 7.032 59.792 7.18133 60.112 7.48C60.4533 7.77867 60.6453 8.16267 60.688 8.632C60.752 9.10133 60.6667 9.61333 60.432 10.168L55.952 21.336C55.696 21.9973 55.3333 22.488 54.864 22.808C54.416 23.128 53.872 23.288 53.232 23.288C52.6133 23.288 52.0693 23.128 51.6 22.808C51.152 22.488 50.7893 21.9973 50.512 21.336L46.672 11.352H48.752L45.008 21.304C44.752 21.9653 44.4 22.4667 43.952 22.808C43.504 23.128 42.96 23.288 42.32 23.288ZM69.0815 29.048C68.5268 29.048 68.0682 28.8987 67.7055 28.6C67.3428 28.3013 67.1295 27.9067 67.0655 27.416C67.0015 26.9467 67.0868 26.4453 67.3215 25.912L69.4655 21.176V23.16L63.8015 10.168C63.5882 9.61333 63.5135 9.10133 63.5775 8.632C63.6628 8.14133 63.8975 7.75733 64.2815 7.48C64.6868 7.18133 65.2415 7.032 65.9455 7.032C66.5215 7.032 66.9802 7.17067 67.3215 7.448C67.6842 7.704 68.0148 8.20533 68.3135 8.952L72.0895 18.552H71.0655L74.9695 8.92C75.2682 8.19467 75.5988 7.704 75.9615 7.448C76.3455 7.17067 76.8575 7.032 77.4975 7.032C78.0522 7.032 78.4895 7.18133 78.8095 7.48C79.1508 7.75733 79.3535 8.13067 79.4175 8.6C79.5028 9.06933 79.4175 9.58133 79.1615 10.136L71.6415 27.192C71.3215 27.9173 70.9588 28.408 70.5535 28.664C70.1695 28.92 69.6788 29.048 69.0815 29.048ZM89.641 23.352C87.785 23.352 86.185 23.0213 84.841 22.36C83.5183 21.6773 82.4943 20.728 81.769 19.512C81.065 18.2747 80.713 16.824 80.713 15.16C80.713 13.5387 81.0543 12.12 81.737 10.904C82.4197 9.66667 83.369 8.70667 84.585 8.024C85.8223 7.32 87.2197 6.968 88.777 6.968C89.9077 6.968 90.9317 7.16 91.849 7.544C92.7663 7.90667 93.5557 8.44 94.217 9.144C94.8783 9.82667 95.3797 10.6693 95.721 11.672C96.0623 12.6533 96.233 13.752 96.233 14.968C96.233 15.3733 96.105 15.6827 95.849 15.896C95.593 16.088 95.2197 16.184 94.729 16.184H84.681V13.688H92.745L92.233 14.136C92.233 13.2613 92.105 12.536 91.849 11.96C91.593 11.3627 91.2197 10.9147 90.729 10.616C90.2597 10.3173 89.673 10.168 88.969 10.168C88.1797 10.168 87.5077 10.3493 86.953 10.712C86.3983 11.0747 85.9717 11.5973 85.673 12.28C85.3743 12.9627 85.225 13.784 85.225 14.744V15C85.225 16.6213 85.5983 17.816 86.345 18.584C87.113 19.352 88.2437 19.736 89.737 19.736C90.249 19.736 90.8357 19.672 91.497 19.544C92.1583 19.416 92.777 19.2133 93.353 18.936C93.8437 18.7013 94.281 18.6267 94.665 18.712C95.049 18.776 95.3477 18.9467 95.561 19.224C95.7743 19.5013 95.8917 19.8213 95.913 20.184C95.9557 20.5467 95.881 20.9093 95.689 21.272C95.497 21.6133 95.177 21.9013 94.729 22.136C94.0037 22.5413 93.1823 22.84 92.265 23.032C91.369 23.2453 90.4943 23.352 89.641 23.352ZM101.54 23.288C100.729 23.288 100.11 23.0747 99.6835 22.648C99.2568 22.2213 99.0435 21.6133 99.0435 20.824V9.464C99.0435 8.67467 99.2462 8.07733 99.6515 7.672C100.078 7.24533 100.665 7.032 101.411 7.032C102.18 7.032 102.766 7.24533 103.172 7.672C103.577 8.07733 103.78 8.67467 103.78 9.464V11.128H103.46C103.716 9.848 104.281 8.856 105.156 8.152C106.03 7.448 107.161 7.05333 108.548 6.968C109.081 6.92533 109.486 7.064 109.764 7.384C110.062 7.68267 110.222 8.184 110.244 8.888C110.286 9.54933 110.148 10.072 109.828 10.456C109.529 10.84 109.017 11.0747 108.292 11.16L107.556 11.224C106.34 11.3307 105.433 11.6827 104.836 12.28C104.26 12.8773 103.972 13.7413 103.972 14.872V20.824C103.972 21.6133 103.758 22.2213 103.332 22.648C102.926 23.0747 102.329 23.288 101.54 23.288ZM124.177 23C123.345 23 122.705 22.776 122.257 22.328C121.809 21.88 121.585 21.24 121.585 20.408V3.032C121.585 2.2 121.809 1.56 122.257 1.112C122.705 0.663999 123.345 0.439999 124.177 0.439999H130.417C134.278 0.439999 137.254 1.42133 139.345 3.384C141.457 5.32533 142.513 8.09867 142.513 11.704C142.513 13.5173 142.235 15.128 141.681 16.536C141.147 17.9227 140.369 19.096 139.345 20.056C138.321 21.016 137.062 21.752 135.569 22.264C134.075 22.7547 132.358 23 130.417 23H124.177ZM126.545 18.936H130.129C131.345 18.936 132.401 18.7867 133.297 18.488C134.193 18.1893 134.939 17.7413 135.537 17.144C136.134 16.5467 136.582 15.8 136.881 14.904C137.179 13.9867 137.329 12.92 137.329 11.704C137.329 9.272 136.721 7.46933 135.505 6.296C134.31 5.10133 132.518 4.504 130.129 4.504H126.545V18.936ZM151.262 23.352C150.11 23.352 149.075 23.128 148.158 22.68C147.24 22.232 146.526 21.624 146.014 20.856C145.502 20.088 145.246 19.224 145.246 18.264C145.246 17.112 145.544 16.2053 146.142 15.544C146.739 14.8613 147.71 14.3813 149.054 14.104C150.398 13.8053 152.179 13.656 154.398 13.656H156.094V16.152H154.43C153.342 16.152 152.456 16.216 151.774 16.344C151.112 16.4507 150.632 16.6427 150.334 16.92C150.056 17.1973 149.918 17.5813 149.918 18.072C149.918 18.6693 150.12 19.16 150.526 19.544C150.952 19.928 151.56 20.12 152.35 20.12C152.968 20.12 153.512 19.9813 153.982 19.704C154.472 19.4053 154.856 19.0107 155.134 18.52C155.411 18.008 155.55 17.432 155.55 16.792V13.112C155.55 12.1733 155.336 11.512 154.91 11.128C154.483 10.7227 153.758 10.52 152.734 10.52C152.158 10.52 151.528 10.5947 150.846 10.744C150.184 10.872 149.448 11.096 148.638 11.416C148.168 11.6293 147.752 11.6827 147.39 11.576C147.027 11.448 146.75 11.2347 146.558 10.936C146.366 10.616 146.27 10.2747 146.27 9.912C146.27 9.528 146.376 9.16533 146.59 8.824C146.803 8.46133 147.155 8.19467 147.646 8.024C148.648 7.61867 149.587 7.34133 150.462 7.192C151.358 7.04267 152.179 6.968 152.926 6.968C154.568 6.968 155.912 7.21333 156.958 7.704C158.024 8.17333 158.824 8.90933 159.358 9.912C159.891 10.8933 160.158 12.1627 160.158 13.72V20.824C160.158 21.6133 159.966 22.2213 159.582 22.648C159.198 23.0747 158.643 23.288 157.918 23.288C157.192 23.288 156.627 23.0747 156.222 22.648C155.838 22.2213 155.646 21.6133 155.646 20.824V19.64L155.87 19.832C155.742 20.5573 155.464 21.1867 155.038 21.72C154.632 22.232 154.11 22.6373 153.47 22.936C152.83 23.2133 152.094 23.352 151.262 23.352ZM169.778 23.352C168.84 23.352 167.869 23.2667 166.866 23.096C165.885 22.9253 164.989 22.6373 164.178 22.232C163.752 22.0187 163.442 21.752 163.25 21.432C163.08 21.0907 163.005 20.7493 163.026 20.408C163.048 20.0667 163.154 19.7573 163.346 19.48C163.56 19.2027 163.826 19.0213 164.146 18.936C164.488 18.8293 164.861 18.8613 165.266 19.032C166.141 19.3947 166.941 19.6507 167.666 19.8C168.392 19.9493 169.106 20.024 169.81 20.024C170.728 20.024 171.389 19.8853 171.794 19.608C172.221 19.3093 172.434 18.9253 172.434 18.456C172.434 18.0293 172.296 17.7093 172.018 17.496C171.741 17.2827 171.336 17.1333 170.802 17.048L167.442 16.44C166.12 16.2053 165.096 15.7253 164.37 15C163.666 14.2533 163.314 13.304 163.314 12.152C163.314 11.0853 163.613 10.168 164.21 9.4C164.808 8.61067 165.629 8.01333 166.674 7.608C167.741 7.18133 168.946 6.968 170.29 6.968C171.25 6.968 172.136 7.05333 172.946 7.224C173.757 7.39467 174.536 7.672 175.282 8.056C175.666 8.248 175.933 8.504 176.082 8.824C176.253 9.144 176.306 9.47467 176.242 9.816C176.2 10.1573 176.072 10.4667 175.858 10.744C175.645 11.0213 175.368 11.2027 175.026 11.288C174.706 11.3733 174.333 11.3307 173.906 11.16C173.224 10.84 172.594 10.616 172.018 10.488C171.442 10.3387 170.888 10.264 170.354 10.264C169.394 10.264 168.701 10.424 168.274 10.744C167.848 11.0427 167.634 11.4267 167.634 11.896C167.634 12.2587 167.752 12.568 167.986 12.824C168.242 13.0587 168.626 13.2187 169.138 13.304L172.498 13.912C173.885 14.1467 174.941 14.616 175.666 15.32C176.392 16.0027 176.754 16.9413 176.754 18.136C176.754 19.7573 176.114 21.0373 174.834 21.976C173.576 22.8933 171.89 23.352 169.778 23.352ZM181.944 23.288C181.155 23.288 180.547 23.0747 180.12 22.648C179.715 22.2213 179.512 21.6133 179.512 20.824V2.616C179.512 1.80533 179.715 1.19733 180.12 0.792C180.547 0.365332 181.155 0.151999 181.944 0.151999C182.712 0.151999 183.299 0.365332 183.704 0.792C184.131 1.19733 184.344 1.80533 184.344 2.616V10.232H183.896C184.387 9.18667 185.112 8.38667 186.072 7.832C187.054 7.256 188.163 6.968 189.4 6.968C190.659 6.968 191.694 7.21333 192.504 7.704C193.315 8.17333 193.923 8.89867 194.328 9.88C194.734 10.84 194.936 12.0667 194.936 13.56V20.824C194.936 21.6133 194.723 22.2213 194.296 22.648C193.891 23.0747 193.294 23.288 192.504 23.288C191.736 23.288 191.139 23.0747 190.712 22.648C190.307 22.2213 190.104 21.6133 190.104 20.824V13.784C190.104 12.696 189.902 11.9173 189.496 11.448C189.112 10.9573 188.515 10.712 187.704 10.712C186.68 10.712 185.859 11.032 185.24 11.672C184.643 12.312 184.344 13.1653 184.344 14.232V20.824C184.344 22.4667 183.544 23.288 181.944 23.288ZM208.24 23.352C206.981 23.352 205.861 23.0427 204.88 22.424C203.92 21.784 203.28 20.9413 202.96 19.896L203.312 18.84V20.824C203.312 21.6133 203.109 22.2213 202.704 22.648C202.298 23.0747 201.712 23.288 200.944 23.288C200.176 23.288 199.578 23.0747 199.152 22.648C198.746 22.2213 198.544 21.6133 198.544 20.824V2.616C198.544 1.80533 198.746 1.19733 199.152 0.792C199.578 0.365332 200.186 0.151999 200.976 0.151999C201.744 0.151999 202.33 0.365332 202.736 0.792C203.162 1.19733 203.376 1.80533 203.376 2.616V10.2H202.992C203.333 9.24 203.984 8.46133 204.944 7.864C205.904 7.26667 207.002 6.968 208.24 6.968C209.626 6.968 210.832 7.29867 211.856 7.96C212.88 8.62133 213.68 9.56 214.256 10.776C214.832 11.992 215.12 13.4427 215.12 15.128C215.12 16.8133 214.832 18.2747 214.256 19.512C213.68 20.7493 212.869 21.6987 211.824 22.36C210.8 23.0213 209.605 23.352 208.24 23.352ZM206.8 19.736C207.482 19.736 208.08 19.5653 208.592 19.224C209.125 18.8827 209.53 18.3813 209.808 17.72C210.106 17.0373 210.256 16.1733 210.256 15.128C210.256 13.5707 209.936 12.4293 209.296 11.704C208.656 10.9573 207.824 10.584 206.8 10.584C206.117 10.584 205.509 10.744 204.976 11.064C204.464 11.384 204.058 11.8853 203.76 12.568C203.461 13.2293 203.312 14.0827 203.312 15.128C203.312 16.6853 203.632 17.848 204.272 18.616C204.912 19.3627 205.754 19.736 206.8 19.736ZM225.627 23.352C223.941 23.352 222.469 23.0213 221.211 22.36C219.973 21.6987 219.013 20.7493 218.331 19.512C217.648 18.2747 217.307 16.8133 217.307 15.128C217.307 13.8693 217.499 12.7387 217.883 11.736C218.267 10.7333 218.821 9.88 219.547 9.176C220.293 8.45067 221.179 7.90667 222.203 7.544C223.227 7.16 224.368 6.968 225.627 6.968C227.312 6.968 228.773 7.29867 230.011 7.96C231.269 8.62133 232.24 9.56 232.923 10.776C233.627 11.992 233.979 13.4427 233.979 15.128C233.979 16.408 233.776 17.5493 233.371 18.552C232.987 19.5547 232.432 20.4187 231.707 21.144C230.981 21.8693 230.096 22.424 229.051 22.808C228.027 23.1707 226.885 23.352 225.627 23.352ZM225.627 19.736C226.331 19.736 226.939 19.5653 227.451 19.224C227.963 18.8827 228.368 18.3813 228.667 17.72C228.965 17.0373 229.115 16.1733 229.115 15.128C229.115 13.5707 228.795 12.4293 228.155 11.704C227.515 10.9573 226.672 10.584 225.627 10.584C224.944 10.584 224.336 10.744 223.803 11.064C223.291 11.384 222.885 11.8853 222.587 12.568C222.309 13.2293 222.171 14.0827 222.171 15.128C222.171 16.6853 222.491 17.848 223.131 18.616C223.771 19.3627 224.603 19.736 225.627 19.736ZM242.231 23.352C241.079 23.352 240.044 23.128 239.127 22.68C238.209 22.232 237.495 21.624 236.983 20.856C236.471 20.088 236.215 19.224 236.215 18.264C236.215 17.112 236.513 16.2053 237.111 15.544C237.708 14.8613 238.679 14.3813 240.023 14.104C241.367 13.8053 243.148 13.656 245.367 13.656H247.063V16.152H245.399C244.311 16.152 243.425 16.216 242.743 16.344C242.081 16.4507 241.601 16.6427 241.303 16.92C241.025 17.1973 240.887 17.5813 240.887 18.072C240.887 18.6693 241.089 19.16 241.495 19.544C241.921 19.928 242.529 20.12 243.319 20.12C243.937 20.12 244.481 19.9813 244.951 19.704C245.441 19.4053 245.825 19.0107 246.103 18.52C246.38 18.008 246.519 17.432 246.519 16.792V13.112C246.519 12.1733 246.305 11.512 245.879 11.128C245.452 10.7227 244.727 10.52 243.703 10.52C243.127 10.52 242.497 10.5947 241.815 10.744C241.153 10.872 240.417 11.096 239.607 11.416C239.137 11.6293 238.721 11.6827 238.359 11.576C237.996 11.448 237.719 11.2347 237.527 10.936C237.335 10.616 237.239 10.2747 237.239 9.912C237.239 9.528 237.345 9.16533 237.559 8.824C237.772 8.46133 238.124 8.19467 238.615 8.024C239.617 7.61867 240.556 7.34133 241.431 7.192C242.327 7.04267 243.148 6.968 243.895 6.968C245.537 6.968 246.881 7.21333 247.927 7.704C248.993 8.17333 249.793 8.90933 250.327 9.912C250.86 10.8933 251.127 12.1627 251.127 13.72V20.824C251.127 21.6133 250.935 22.2213 250.551 22.648C250.167 23.0747 249.612 23.288 248.887 23.288C248.161 23.288 247.596 23.0747 247.191 22.648C246.807 22.2213 246.615 21.6133 246.615 20.824V19.64L246.839 19.832C246.711 20.5573 246.433 21.1867 246.007 21.72C245.601 22.232 245.079 22.6373 244.439 22.936C243.799 23.2133 243.063 23.352 242.231 23.352ZM257.227 23.288C256.416 23.288 255.798 23.0747 255.371 22.648C254.944 22.2213 254.731 21.6133 254.731 20.824V9.464C254.731 8.67467 254.934 8.07733 255.339 7.672C255.766 7.24533 256.352 7.032 257.099 7.032C257.867 7.032 258.454 7.24533 258.859 7.672C259.264 8.07733 259.467 8.67467 259.467 9.464V11.128H259.147C259.403 9.848 259.968 8.856 260.843 8.152C261.718 7.448 262.848 7.05333 264.235 6.968C264.768 6.92533 265.174 7.064 265.451 7.384C265.75 7.68267 265.91 8.184 265.931 8.888C265.974 9.54933 265.835 10.072 265.515 10.456C265.216 10.84 264.704 11.0747 263.979 11.16L263.243 11.224C262.027 11.3307 261.12 11.6827 260.523 12.28C259.947 12.8773 259.659 13.7413 259.659 14.872V20.824C259.659 21.6133 259.446 22.2213 259.019 22.648C258.614 23.0747 258.016 23.288 257.227 23.288ZM273.749 23.352C272.384 23.352 271.179 23.0213 270.133 22.36C269.109 21.6987 268.309 20.7493 267.733 19.512C267.157 18.2747 266.869 16.8133 266.869 15.128C266.869 13.4427 267.157 11.992 267.733 10.776C268.309 9.56 269.109 8.62133 270.133 7.96C271.179 7.29867 272.384 6.968 273.749 6.968C274.987 6.968 276.075 7.26667 277.013 7.864C277.973 8.46133 278.624 9.24 278.965 10.2H278.613V2.616C278.613 1.80533 278.816 1.19733 279.221 0.792C279.627 0.365332 280.224 0.151999 281.013 0.151999C281.781 0.151999 282.379 0.365332 282.805 0.792C283.232 1.19733 283.445 1.80533 283.445 2.616V20.824C283.445 21.6133 283.232 22.2213 282.805 22.648C282.4 23.0747 281.813 23.288 281.045 23.288C280.277 23.288 279.68 23.0747 279.253 22.648C278.848 22.2213 278.645 21.6133 278.645 20.824V18.648L278.997 19.896C278.699 20.9413 278.059 21.784 277.077 22.424C276.117 23.0427 275.008 23.352 273.749 23.352ZM275.189 19.736C275.893 19.736 276.501 19.5653 277.013 19.224C277.525 18.8827 277.931 18.3813 278.229 17.72C278.528 17.0373 278.677 16.1733 278.677 15.128C278.677 13.5707 278.357 12.4293 277.717 11.704C277.077 10.9573 276.235 10.584 275.189 10.584C274.507 10.584 273.899 10.744 273.365 11.064C272.853 11.384 272.448 11.8853 272.149 12.568C271.872 13.2293 271.733 14.0827 271.733 15.128C271.733 16.6853 272.053 17.848 272.693 18.616C273.333 19.3627 274.165 19.736 275.189 19.736Z" fill="#192B53"/>
</svg>
